<?xml version="1.0" encoding="UTF-8"?>
<!DOCTYPE svg PUBLIC "-//W3C//DTD SVG 1.1//EN" "http://www.w3.org/Graphics/SVG/1.1/DTD/svg11.dtd">
<!-- Creator: CorelDRAW 2019 (64 Bit) -->
<svg xmlns="http://www.w3.org/2000/svg" xml:space="preserve" width="123.814mm" height="100.923mm" version="1.1" style="shape-rendering:geometricPrecision; text-rendering:geometricPrecision; image-rendering:optimizeQuality; fill-rule:evenodd; clip-rule:evenodd"
viewBox="0 0 5761.57 4696.36"
 xmlns:xlink="http://www.w3.org/1999/xlink">
 <defs>
  <style type="text/css">
   <![CDATA[
    .fil0 {fill:#EDD99F}
    .fil7 {fill:#FEFEFE;fill-rule:nonzero}
    .fil22 {fill:#FFC82A;fill-rule:nonzero}
    .fil21 {fill:#F9B7A1;fill-rule:nonzero}
    .fil35 {fill:#F8AFAD;fill-rule:nonzero}
    .fil29 {fill:#F89E32;fill-rule:nonzero}
    .fil3 {fill:#F79F8C;fill-rule:nonzero}
    .fil34 {fill:#F48889;fill-rule:nonzero}
    .fil28 {fill:#D57431;fill-rule:nonzero}
    .fil4 {fill:#DF7562;fill-rule:nonzero}
    .fil26 {fill:#ADB6BC;fill-rule:nonzero}
    .fil31 {fill:#A6602E;fill-rule:nonzero}
    .fil11 {fill:#E3D8C8;fill-rule:nonzero}
    .fil33 {fill:#89979F;fill-rule:nonzero}
    .fil25 {fill:#78868F;fill-rule:nonzero}
    .fil16 {fill:#D9875C;fill-rule:nonzero}
    .fil15 {fill:#C06841;fill-rule:nonzero}
    .fil19 {fill:#D9C9BA;fill-rule:nonzero}
    .fil23 {fill:#545F66;fill-rule:nonzero}
    .fil24 {fill:#40474C;fill-rule:nonzero}
    .fil14 {fill:#D2BFB0;fill-rule:nonzero}
    .fil18 {fill:#D0865A;fill-rule:nonzero}
    .fil32 {fill:#63737D;fill-rule:nonzero}
    .fil13 {fill:#C8774F;fill-rule:nonzero}
    .fil17 {fill:#B5744F;fill-rule:nonzero}
    .fil12 {fill:#BEA98C;fill-rule:nonzero}
    .fil10 {fill:#A86545;fill-rule:nonzero}
    .fil20 {fill:#6E3B34;fill-rule:nonzero}
    .fil9 {fill:#5A302C;fill-rule:nonzero}
    .fil5 {fill:#75645B;fill-rule:nonzero}
    .fil1 {fill:#665851;fill-rule:nonzero}
    .fil2 {fill:#544A44;fill-rule:nonzero}
    .fil8 {fill:#443D38;fill-rule:nonzero}
    .fil6 {fill:#34302C;fill-rule:nonzero}
    .fil30 {fill:#433D3D;fill-rule:nonzero}
    .fil27 {fill:#312E2D;fill-rule:nonzero}
   ]]>
  </style>
 </defs>
 <g id="Camada_x0020_1">
  <metadata id="CorelCorpID_0Corel-Layer"/>
  <g id="_1916005346144">
   <ellipse class="fil0" cx="2880.94" cy="2348.18" rx="2503.82" ry="2348.18"/>
   <g>
    <g>
     <path class="fil1" d="M2491.45 1634.21c-25.17,26.87 -67.68,44.64 -135.58,33.75 -18.45,-2.95 -37.02,-21.95 -69.42,-21.95 -19.37,0 -52.51,19 -70.96,21.95 -72.68,11.62 -116.61,-9.72 -141.21,-39.84 -40.66,78.45 -148.18,373.94 83.87,444.8 19.44,5.97 123.78,0 123.78,0l1.04 0c0,0 123.89,7.18 149.34,0 208.12,-58.62 104.01,-349.3 59.16,-438.71z"/>
     <path class="fil2" d="M2557.05 1908.01c-16.55,4.49 -41.86,16.99 -58.98,51.66 -18.42,37.09 -60.74,50.88 -96.86,39.4 -36.15,-11.49 -49.88,-137.95 -18.07,-194.27 38.27,-67.9 -245.16,-74.41 -194.65,0 36.36,53.5 18.07,182.78 -18.07,194.27 -36.12,11.48 -78.47,-2.31 -96.81,-39.4 -16.38,-33.08 -40.18,-45.95 -56.69,-50.95 10.26,71.77 48.76,135.91 141.43,164.2 19.4,5.97 123.76,0 123.76,0l1.03 0c0,0 123.91,7.18 149.34,0 87.55,-24.67 119.86,-90.4 124.57,-164.9z"/>
     <path class="fil3" d="M2448.87 2084.62c15.94,0 23.18,-11.26 16.04,-25.05 0,0 -10.82,-38.73 -57.49,-38.73 -46.08,0 -57.54,38.73 -57.54,38.73 -7.11,13.79 0.12,25.05 16.07,25.05l82.92 0z"/>
     <path class="fil4" d="M2391.38 2023.77c-1.87,5.79 -3.56,10.93 -4.84,15.94 -1.25,5.06 -2.05,9.9 -2.12,14.56 -0.1,4.65 0.49,9.25 1.89,14.09 1.33,4.84 3.46,9.7 5.74,15.29 -5.09,-1.91 -9.53,-5.7 -12.85,-10.95 -3.3,-5.21 -5.17,-12.03 -5.02,-18.73 0.14,-6.7 2.16,-13.02 5.18,-18.27 3.04,-5.12 7.01,-9.46 12.02,-11.92z"/>
     <path class="fil4" d="M2425 2023.77c1.81,5.79 3.51,10.93 4.83,15.94 1.21,5.06 2.03,9.9 2.12,14.56 0.13,4.65 -0.49,9.25 -1.87,14.09 -1.33,4.84 -3.45,9.7 -5.73,15.29 5.08,-1.91 9.53,-5.7 12.82,-10.95 3.28,-5.21 5.2,-12.03 4.97,-18.73 -0.1,-6.7 -2.08,-13.02 -5.14,-18.27 -3.07,-5.12 -7.01,-9.46 -12,-11.92z"/>
     <path class="fil3" d="M2205.25 2084.62c15.96,0 23.21,-11.26 16.09,-25.05 0,0 -10.79,-38.73 -57.54,-38.73 -46.05,0 -57.51,38.73 -57.51,38.73 -7.14,13.79 0.12,25.05 16.07,25.05l82.89 0z"/>
     <path class="fil4" d="M2147.79 2023.77c-1.88,5.79 -3.56,10.93 -4.8,15.94 -1.29,5.06 -2.08,9.9 -2.2,14.56 -0.05,4.65 0.56,9.25 1.9,14.09 1.31,4.84 3.49,9.7 5.75,15.29 -5.11,-1.91 -9.57,-5.7 -12.84,-10.95 -3.3,-5.21 -5.2,-12.03 -5.04,-18.73 0.16,-6.7 2.18,-13.02 5.17,-18.27 3.1,-5.12 7.06,-9.46 12.05,-11.92z"/>
     <path class="fil4" d="M2181.4 2023.77c1.85,5.79 3.53,10.93 4.77,15.94 1.3,5.06 2.08,9.9 2.2,14.56 0.07,4.65 -0.49,9.25 -1.87,14.09 -1.34,4.84 -3.51,9.7 -5.78,15.29 5.07,-1.91 9.55,-5.7 12.82,-10.95 3.34,-5.21 5.21,-12.03 5.04,-18.73 -0.13,-6.7 -2.15,-13.02 -5.14,-18.27 -3.09,-5.12 -7.11,-9.46 -12.05,-11.92z"/>
     <path class="fil3" d="M2358.36 1777.05c-9.5,-5.19 -22.03,7.55 -27.81,28.32 0,0 -21.77,55.51 6.24,70.67 27.53,14.94 62.56,-33.31 62.56,-33.31 14.31,-16.17 18.19,-33.58 8.64,-38.79l-49.63 -26.89z"/>
     <path class="fil3" d="M2182.25 1779.07c9.31,-5.06 21.55,7.38 27.17,27.68 0,0 21.26,54.17 -6.06,68.98 -26.91,14.6 -61.15,-32.5 -61.15,-32.5 -13.92,-15.78 -17.7,-32.85 -8.36,-37.9l48.4 -26.25z"/>
     <path class="fil4" d="M2390.29 1799.54l-1.69 -4.23 -2.61 8.07c-1.92,5.84 -3.73,11.35 -5.75,16.5 -2.42,6.14 -5.06,11.83 -8.23,17.48 -2.87,5.29 -6.35,10.82 -10.62,16.94 -3.81,5.43 -8.01,11 -12.4,16.92l-3.96 5.32 5.04 -1.73c4.25,-1.51 9.38,-5.37 15.05,-11.44 5.58,-5.92 10.82,-13.21 15.14,-21.04 4.58,-8.11 8.14,-17.09 9.82,-24.72 1.77,-7.72 1.85,-13.96 0.2,-18.07z"/>
     <path class="fil4" d="M2359.32 1808.53c3.18,-4.5 6.83,-9 10.67,-13.72l5.37 -6.73 -4.47 0.92c-4.36,0.9 -9.55,4.38 -15.05,10 -5.44,5.6 -11.08,13.49 -15.37,21.72 -4.2,7.88 -7.49,16.27 -9.4,24.17 -2.02,8.12 -2.47,14.48 -1.38,18.83l1.28 5.19 2.12 -5.78c2.74,-7.39 5.12,-13.77 7.66,-20.04 2.82,-6.91 5.51,-12.87 8.34,-18.13 3.07,-5.76 6.4,-11.11 10.23,-16.42z"/>
     <path class="fil4" d="M2179.18 1854.3c-4.27,-6.12 -7.75,-11.66 -10.67,-16.94 -3.12,-5.65 -5.84,-11.35 -8.19,-17.48 -2.03,-5.16 -3.81,-10.66 -5.7,-16.5l-2.69 -8.07 -1.64 4.23c-1.63,4.12 -1.56,10.36 0.16,18.07 1.71,7.63 5.27,16.61 9.82,24.72 4.38,7.83 9.59,15.12 15.13,21.04 5.73,6.08 10.77,9.94 15.07,11.44l5.02 1.73 -3.94 -5.32c-4.38,-5.93 -8.57,-11.49 -12.38,-16.92z"/>
     <path class="fil4" d="M2200.15 1820.72c-4.38,-8.23 -9.95,-16.12 -15.42,-21.72 -5.51,-5.61 -10.69,-9.09 -15.04,-10l-4.49 -0.92 5.39 6.73c3.84,4.73 7.44,9.23 10.64,13.72 3.86,5.3 7.19,10.66 10.24,16.42 2.81,5.25 5.55,11.21 8.36,18.13 2.53,6.27 4.87,12.65 7.57,20.04l2.18 5.78 1.31 -5.19c1.05,-4.35 0.59,-10.7 -1.34,-18.83 -1.99,-7.9 -5.22,-16.29 -9.4,-24.17z"/>
     <path class="fil5" d="M2518.41 1525.45c4.94,0.81 10.64,-9.05 10.64,-9.05 -19.67,-2.46 -35.28,-27.91 -35.28,-27.91 12.33,5.73 20.52,4.09 20.52,4.09 -22.06,-9.59 -46.82,-54.14 -51.68,-63.17 -2.86,-10.34 -6.25,-22.38 -11.13,-37.25 -20.31,-61.77 -149.64,-72.11 -165.03,-72.07 -50.68,0.27 -146.27,10.29 -166.59,72.07 -4.6,13.99 -7.83,25.72 -10.59,35.97 -2.38,4.58 -28.84,54.29 -52.37,64.45 0,0 8.21,1.64 20.52,-4.09 0,0 -15.56,25.44 -35.26,27.91 0,0 5.55,9.44 10.36,9.06l-0.18 0.38c-3.36,3.07 -25.89,24.57 -22.11,49.27 0,0 6.59,-16.01 13.15,-18.9 0,0 -3.3,49.66 10.64,62.42 0,0 -0.88,-13.66 1.74,-22.97 16.79,44.56 62.61,87.81 159.73,72.3 18.45,-2.95 51.59,-21.95 70.96,-21.95 32.41,0 50.97,19 69.42,21.95 97.95,15.66 143.13,-28.19 159.37,-73.05 2.89,9.27 1.94,23.72 1.94,23.72 13.97,-12.76 10.67,-62.42 10.67,-62.42 6.57,2.89 13.12,18.9 13.12,18.9 4.12,-26.7 -22.56,-49.66 -22.56,-49.66z"/>
     <path class="fil6" d="M2417.79 1479.52c4.33,17.32 -2.77,34 -5.63,34.72 -5.42,1.33 -26.02,0.25 -30.68,-25.83 -4.14,-23.46 11.41,-36.01 15.01,-36.9 5.25,-1.3 17.01,10.67 21.31,28z"/>
     <path class="fil6" d="M2153.41 1479.52c-4.33,17.32 2.79,34 5.65,34.72 5.38,1.33 26.04,0.25 30.65,-25.83 4.23,-23.46 -11.36,-36.01 -14.96,-36.9 -5.27,-1.3 -17.04,10.67 -21.34,28z"/>
     <path class="fil7" d="M2494.68 1576.62c-20.65,-14.02 -91.95,28.83 -166.16,-37.76l-85.84 0c-74.2,66.59 -145.51,23.74 -166.16,37.76 -28.73,19.52 30.95,113.63 89.5,113.63 7.64,0 45.88,2.02 78.18,-12.82 10.98,-5.07 23.97,-19.67 40.36,-20.09l0 0.07 1.05 -0.11 1.07 0.11 0 -0.07c16.37,0.43 29.89,13.76 40.33,20.09 17.29,10.42 70.53,12.82 78.18,12.82 58.55,0 118.23,-94.11 89.5,-113.63z"/>
     <path class="fil8" d="M2331.9 1664.17c-10.43,0 -19.72,-6.77 -26.14,-11.42 -1.99,-1.45 -3.71,-2.68 -4.92,-3.34 -7.73,-4.1 -13.51,-2.94 -13.74,-2.89l-2.71 -0.66 -1.16 -2.44 0 -66.9c0,-1.77 1.44,-3.22 3.17,-3.22 1.75,0 3.2,1.44 3.2,3.22l0 63.46c3.32,0.02 8.39,0.74 14.22,3.81 1.62,0.84 3.49,2.2 5.71,3.81 6.52,4.75 16.43,11.92 26.15,9.77 6.55,-1.43 12.62,-7.11 18.01,-16.83 0.82,-1.56 2.77,-2.1 4.33,-1.23 1.53,0.84 2.07,2.77 1.23,4.32 -6.27,11.34 -13.81,18.11 -22.24,19.94 -1.69,0.4 -3.4,0.59 -5.1,0.59z"/>
     <path class="fil8" d="M2240.91 1664.17c-1.66,0 -3.4,-0.2 -5.14,-0.59 -8.44,-1.84 -15.89,-8.6 -22.24,-19.94 -0.82,-1.54 -0.25,-3.47 1.28,-4.32 1.51,-0.87 3.48,-0.33 4.33,1.23 5.35,9.72 11.44,15.4 18.03,16.83 9.7,2.14 19.58,-5.02 26.11,-9.77 2.17,-1.61 4.1,-2.97 5.71,-3.81 5.83,-3.07 10.92,-3.79 14.23,-3.81l0 -63.46c0,-1.77 1.44,-3.22 3.17,-3.22 1.75,0 3.2,1.44 3.2,3.22l0 66.9 -1.23 2.49 -2.69 0.59c-0.2,-0.03 -5.94,-1.2 -13.7,2.9 -1.21,0.66 -2.94,1.89 -4.93,3.34 -6.45,4.66 -15.71,11.42 -26.13,11.42z"/>
     <path class="fil3" d="M2241.02 1541.05c2.16,22.46 30.8,37.23 44.83,37.23 17.35,0 43.32,-16.42 45.49,-38.86 0,0 -22.7,-16.45 -49.28,-16.45 -22.26,0 -41.04,18.08 -41.04,18.08z"/>
     <path class="fil5" d="M2424.69 1439.25c0,0 10.34,-149.51 94.11,-116.03 13.66,5.49 18.6,72.25 -18.6,95.23 -37.25,23 -59.13,17.53 -65.7,27.37 0,0 -11.48,4.96 -9.81,-6.57z"/>
     <path class="fil3" d="M2526.3 1335.06c-15.07,0.88 -35.31,17.11 -50.08,41.65 -13.26,21.96 -18.5,44.57 -15.05,58.98 10.21,-2.86 29.26,-8.31 45.03,-18.06 28.86,-17.79 26.37,-61.14 20.11,-82.57z"/>
     <path class="fil5" d="M2146.51 1439.25c0,0 -10.34,-149.51 -94.1,-116.03 -13.66,5.49 -18.6,72.25 18.6,95.23 37.22,23 59.1,17.53 65.68,27.37 0,0 11.49,4.96 9.81,-6.57z"/>
     <path class="fil3" d="M2044.91 1335.06c15.07,0.88 35.31,17.11 50.07,41.65 13.25,21.96 18.5,44.57 15.07,58.98 -10.24,-2.86 -29.27,-8.31 -45.05,-18.06 -28.85,-17.79 -26.37,-61.14 -20.09,-82.57z"/>
    </g>
    <g>
     <path class="fil9" d="M263.13 1503.04c0,0 81.05,-252.48 317.94,-377.13 236.86,-124.68 155.84,-420.79 149.55,-483.15 0,0 -97.51,265.38 -230.61,324.19 -240,105.98 -617.18,380.25 -455.07,885.2 0,0 243.08,-155.84 218.19,-349.11z"/>
     <path class="fil10" d="M923.69 3292.41c-59.22,0 -148.21,0 -148.21,0 -172,-10.62 -117.53,-146.45 -159.03,-233.16 -52.19,-109.2 -122.76,-315.63 -136.96,-403.1 -8.92,-54.37 55.77,-86.82 43.24,-117.67 -216.89,-535.94 -85.07,-980.11 276.29,-1034.63 173.21,-26.15 381.29,112.7 417.55,281.49 39.83,185.39 82.67,627.82 -287.99,853 -254.16,154.46 -85.56,423.11 -85.56,423.11 160.64,0 242.06,230.96 80.67,230.96z"/>
     <path class="fil11" d="M710.08 3292.14c-57.08,0 -82.99,-41.85 -57.54,-92.95 0,0 38.65,-143.93 205.94,-143.93 164.83,0 205.92,143.93 205.92,143.93 25.48,51.1 -0.45,92.95 -57.57,92.95l-296.75 0z"/>
     <path class="fil12" d="M915.85 3066.26c6.68,21.37 12.67,40.46 17.2,59.22 4.55,18.67 7.4,36.56 7.73,53.88 0.29,17.36 -1.81,34.37 -6.75,52.2 -4.78,17.98 -12.44,36.1 -20.57,56.9 18.22,-7.09 34.18,-21.23 45.99,-40.63 11.85,-19.31 18.58,-44.62 17.91,-69.5 -0.47,-24.97 -7.66,-48.58 -18.48,-67.83 -10.92,-19.19 -25.22,-35.23 -43.03,-44.24z"/>
     <path class="fil12" d="M795.46 3066.26c-6.6,21.37 -12.62,40.46 -17.19,59.22 -4.55,18.67 -7.38,36.56 -7.71,53.88 -0.33,17.36 1.82,34.37 6.72,52.2 4.79,17.98 12.47,36.1 20.65,56.9 -18.23,-7.09 -34.2,-21.23 -46.05,-40.63 -11.83,-19.31 -18.59,-44.62 -17.9,-69.5 0.46,-24.97 7.68,-48.58 18.49,-67.83 10.93,-19.19 25.23,-35.23 42.99,-44.24z"/>
     <path class="fil10" d="M2293.71 2671.38c50.45,82.52 93.64,196.29 147.29,278.17 32.8,50.04 109.86,137.92 301.55,137.92 109.83,0 125.2,182.39 129.77,231.44 0,0 -349.78,0 -489.73,0 -191.74,0 -297.3,-276.27 -339.01,-362.34 -44.82,-92.42 -184.65,-367.02 -184.65,-367.02 261.82,-56.09 357.66,-44.42 434.78,81.84z"/>
     <path class="fil11" d="M2597.35 3354.74c-57.15,0 -83.04,-41.81 -57.59,-92.94 0,0 38.63,-143.93 205.91,-143.93 164.83,0 205.94,143.93 205.94,143.93 25.46,51.14 -0.46,92.94 -57.55,92.94l-296.71 0z"/>
     <path class="fil12" d="M2682.66 3128.87c-6.6,21.38 -12.62,40.52 -17.17,59.25 -4.53,18.64 -7.38,36.57 -7.72,53.91 -0.31,17.34 1.81,34.37 6.75,52.24 4.78,17.91 12.43,36.02 20.64,56.81 -18.27,-7.05 -34.23,-21.21 -46.06,-40.62 -11.84,-19.31 -18.6,-44.59 -17.93,-69.51 0.51,-24.93 7.7,-48.58 18.5,-67.83 10.94,-19.13 25.2,-35.2 42.99,-44.25z"/>
     <path class="fil13" d="M2059.96 2089c0,0 -531.41,-26.48 -785.4,-322.57 -237.56,-276.89 -453.54,-425.51 -720.04,-397.43 -525.65,55.35 -612.44,537.67 -336.6,977.18 109.63,174.6 561.01,478.42 892.99,609.32 222.5,87.73 715.32,204.15 998.94,99.76l-49.89 -966.25z"/>
     <path class="fil14" d="M1106.22 2955.5c-331.91,-130.9 -783.36,-434.72 -892.99,-609.32 -136.68,-217.79 -158.19,-435.52 -107.51,-617.17 156.36,466.17 662.65,726.19 935.03,967.79 289.89,257.14 1248.29,210.42 1248.29,210.42 67.37,70.03 -155.56,158.53 -314.98,182.32 -285.59,38.39 -677.94,-59.17 -867.84,-134.04z"/>
     <path class="fil9" d="M554.52 1369c266.5,-28.07 482.48,120.54 720.04,397.43 224.12,261.2 664.09,312.6 764.54,321.07 -16.48,24.57 -34.87,50 -55.47,76.3 0,0 -885.22,49.87 -1171.93,-187 -255.12,-210.77 -480.69,-288.06 -746.85,-127.02 -21.48,-66.24 -14.12,-140.01 8.15,-195.58 63.87,-159.45 240.69,-259.85 481.52,-285.21z"/>
     <path class="fil13" d="M1625.16 2704.09c50.43,82.57 93.59,196.32 147.3,278.19 32.73,50.03 109.84,137.93 301.55,137.93 109.81,0 125.19,182.38 129.72,231.44 0,0 -349.76,0 -489.76,0 -191.67,0 -297.2,-276.31 -338.93,-362.36 -44.84,-92.41 -184.68,-366.99 -184.68,-366.99 261.82,-56.11 357.66,-44.44 434.8,81.79z"/>
     <path class="fil11" d="M1928.74 3354.74c-57.11,0 -83.02,-41.81 -57.59,-92.94 0,0 38.67,-143.93 205.92,-143.93 164.87,0 205.94,143.93 205.94,143.93 25.46,51.14 -0.41,92.94 -57.57,92.94l-296.71 0z"/>
     <path class="fil12" d="M2134.5 3128.87c6.62,21.38 12.62,40.52 17.19,59.25 4.53,18.64 7.37,36.57 7.72,53.91 0.33,17.34 -1.81,34.37 -6.75,52.24 -4.74,17.91 -12.44,36.02 -20.62,56.81 18.27,-7.05 34.21,-21.21 46.05,-40.62 11.79,-19.31 18.6,-44.59 17.89,-69.51 -0.49,-24.93 -7.62,-48.58 -18.47,-67.83 -10.95,-19.13 -25.21,-35.2 -43.01,-44.25z"/>
     <path class="fil12" d="M2014.13 3128.87c-6.65,21.38 -12.67,40.52 -17.19,59.25 -4.57,18.64 -7.42,36.57 -7.73,53.91 -0.29,17.34 1.84,34.37 6.73,52.24 4.75,17.91 12.51,36.02 20.62,56.81 -18.22,-7.05 -34.18,-21.21 -46.03,-40.62 -11.85,-19.31 -18.58,-44.59 -17.91,-69.51 0.47,-24.93 7.66,-48.58 18.46,-67.83 10.95,-19.13 25.2,-35.2 43.04,-44.25z"/>
     <path class="fil15" d="M2477.75 2097.28c0,0 87.28,36.44 173.86,102.76 97.71,74.89 204.04,164.57 258.53,238.04 48.27,65.07 59.57,108.68 21.72,170.85 -66.14,108.38 -224.57,373.04 -309.44,515.02 -33.8,56.51 -79.52,70.68 -108.89,32.7 -56.51,-73.26 -134.43,-202.61 -106.34,-332.49 42.67,-197.34 70.57,-726.88 70.57,-726.88z"/>
     <path class="fil16" d="M1692.5 2417.54l161.88 -362.9 131.4 -77.75c0,0 76.78,6.86 96.51,14.15 47.84,17.66 127.5,57.08 177.03,69.51l-0.16 0.47 0.2 -0.47c49.35,12.98 138.14,16.86 188.54,24.43 20.81,3.1 137.45,62.66 169.1,165.57 29.17,94.99 -33.13,395.95 -33.13,395.95 16.07,64.48 13.99,255.45 -108.82,298.71 -198.15,69.74 -257.93,146.54 -406.35,108.41l-60.45 -15.56 0.03 -0.46 -0.1 0.46 -60.48 -15.52c-148.42,-38.13 -163.77,-134.19 -303.82,-290.83 -86.76,-97.05 3.5,-265.42 48.61,-314.16z"/>
     <path class="fil11" d="M2028.23 2582.57l183.96 -537.96c11.48,4.21 34.74,11.61 46.7,15.07 11.35,3.35 25.13,7.38 46.89,9.87l-96.12 562.22c105.65,53.7 189.23,148.42 165.59,240.27 -14.09,54.88 -118.87,157.03 -170.14,183.68 -40.82,10.23 -82.6,11.4 -135.73,-2.25l-60.49 -15.58 0.07 -0.46 -0.1 0.46 -60.48 -15.54c-53.15,-13.65 -89.15,-34.76 -120.03,-63.39 -32.08,-48.06 -70.06,-210.96 -55.94,-265.87 23.5,-91.54 138.95,-120.12 255.83,-110.51z"/>
     <path class="fil9" d="M1844.91 2407.34c-8.23,32.11 1.59,62.4 21.98,67.64 20.39,5.24 43.63,-16.55 51.84,-48.66 8.26,-32.13 -1.61,-62.38 -21.98,-67.62 -20.37,-5.25 -43.6,16.55 -51.84,48.64z"/>
     <path class="fil9" d="M2381.41 2545.17c-8.22,32.13 1.62,62.37 22,67.62 20.37,5.22 43.6,-16.51 51.83,-48.64 8.26,-32.13 -1.56,-62.4 -21.97,-67.62 -20.39,-5.25 -43.62,16.53 -51.86,48.64z"/>
     <path class="fil15" d="M1990.19 1977.41c0,0 -5.12,-0.86 -163.49,-10.08 -103.31,-5.96 -226.66,-3.32 -352.19,21.8 -75.98,15.2 -92.64,113.93 -90.9,187.57 3.35,140.98 0.12,458.51 -1.56,599.69 -0.51,43.21 45.46,68.39 104.56,54.31 89.71,-21.39 208.68,-71.74 238.97,-189.61 74.68,-290.62 99.6,-385 140.28,-543.43 17.39,-67.62 124.34,-120.25 124.34,-120.25z"/>
     <path class="fil9" d="M2285.88 2634.81c0.49,-43.54 -63.88,-70.49 -147.78,-92.06 -101.45,-26.07 -152.77,-28.63 -171.6,10 -22.13,45.41 52.42,152.49 131.18,172.69 64.04,16.44 187.57,-38 188.19,-90.63z"/>
     <path class="fil9" d="M1737.04 2686.06l2.36 0.69 0.03 0.1c17.53,31.83 37.8,62.48 60.82,90.62 11.57,14.04 23.92,27.35 37.43,39.19 13.48,11.75 28.27,22.13 44.17,28.15 3.97,1.49 7.91,2.69 12.05,3.53 4.17,0.91 8.47,1.56 12.74,2.01 8.52,0.91 17.14,0.86 25.72,0.03 17.17,-1.61 34.03,-6.35 50.14,-13.02 16.05,-6.66 31.45,-15.27 45.98,-25 7.31,-4.9 14.35,-10.06 21.15,-15.48 3.46,-2.7 6.81,-5.5 10.05,-8.39 3.18,-2.76 6.62,-5.86 9.26,-8.47 1.71,-1.69 3.91,-3.06 6.42,-3.8l11.74 -66.99 26.25 6.71c0,0 -20.06,66.66 -18.91,70.33l0.13 0.34c1.12,3.53 2.58,7.9 4.04,11.85 1.51,4.06 3.1,8.11 4.78,12.16 3.4,8.05 7.09,15.98 11.1,23.74 8.06,15.53 17.4,30.42 28.3,44.01 10.9,13.56 23.41,25.79 37.66,35.46 7.09,4.84 14.63,9.01 22.51,12.35 3.99,1.66 8.01,3.1 12.1,4.31l1.46 0.44 1.66 0.45 2.92 0.7c2.03,0.44 4.05,0.83 6.19,1.12 16.76,2.36 34.69,0.36 52.1,-3.45 17.5,-3.87 34.75,-9.64 51.6,-16.33 33.67,-13.6 66.16,-30.72 96.82,-50.19l0.07 -0.03 3.17 0.56 -0.43 3.22c-29.8,21.52 -61.33,40.61 -94.92,56.52 -16.81,7.88 -34.21,14.9 -52.46,20.02 -18.24,5.1 -37.53,8.62 -57.77,7.06 -2.49,-0.28 -5.01,-0.54 -7.55,-0.94l-3.88 -0.72 -1.75 -0.36 -1.92 -0.43c-4.83,-1.14 -9.62,-2.58 -14.37,-4.26 -9.39,-3.3 -18.44,-7.65 -26.94,-12.77 -17.05,-10.18 -31.96,-23.24 -44.93,-37.56 -12.98,-14.4 -24.2,-30.09 -34,-46.48 -4.89,-8.17 -9.37,-16.57 -13.57,-25.11 -1.07,-2.15 -2.05,-4.4 -3.1,-6.6 -1.94,1.42 -3.87,2.9 -5.81,4.25 -7.85,5.49 -15.84,10.64 -24.08,15.43 -16.45,9.61 -33.77,17.94 -52.1,24.27 -18.31,6.27 -37.63,10.54 -57.44,11.2 -9.92,0.36 -19.91,-0.2 -29.74,-1.83 -4.89,-0.82 -9.8,-1.9 -14.58,-3.23 -4.91,-1.35 -9.77,-3.12 -14.37,-5.16 -18.4,-8.36 -33.57,-20.75 -47.1,-33.96 -13.46,-13.33 -25.28,-27.86 -36.17,-42.88 -21.72,-30.1 -40.05,-62.04 -55.75,-95.2l0.74 -2.18z"/>
     <path class="fil13" d="M506.05 3354.74c-59.24,0 -148.21,0 -148.21,0 -172.02,-10.6 -117.53,-146.4 -159.04,-233.15 -52.2,-109.2 -122.76,-315.63 -137.05,-403.1 -8.87,-54.37 55.84,-86.79 43.33,-117.67 -216.9,-535.94 -85.06,-980.11 276.3,-1034.65 173.2,-26.11 381.29,112.72 417.52,281.54 39.87,185.34 82.65,627.81 -287.98,853 -254.18,154.41 -85.56,423.1 -85.56,423.1 160.6,0 242.03,230.94 80.68,230.94z"/>
     <path class="fil7" d="M566.74 3200.74c-28.97,-42.39 -79.25,-76.94 -141.37,-76.94 0,0 -159.97,-254.93 66.64,-410.86 0.02,0.12 0.06,0.23 0.08,0.34 -225.89,155.95 -66.15,410.52 -66.15,410.52 61.98,0 112.06,34.43 141.11,76.7 -0.1,0.08 -0.2,0.16 -0.31,0.25z"/>
     <path class="fil17" d="M492.09 2713.27c-0.02,-0.11 -0.06,-0.22 -0.08,-0.34 6.03,-4.16 12.32,-8.23 18.92,-12.23 20.36,-12.36 39.44,-25.38 57.37,-38.97 0.1,0.07 0.2,0.13 0.31,0.21 -17.85,13.51 -36.85,26.46 -57.1,38.75 -6.77,4.12 -13.23,8.31 -19.41,12.57z"/>
     <path class="fil18" d="M739.25 2462.6c-0.13,-0.12 -0.29,-0.23 -0.42,-0.33 85.56,-160.06 93.58,-341.26 80.76,-479.14 0.22,0.16 0.41,0.33 0.63,0.49 12.77,137.89 4.63,319.03 -80.96,478.98z"/>
     <path class="fil19" d="M568.61 2661.95c-0.1,-0.08 -0.2,-0.15 -0.31,-0.21 76.47,-58.02 131.57,-126.55 170.53,-199.46 0.13,0.1 0.29,0.21 0.42,0.33 -39.01,72.87 -94.11,141.36 -170.65,199.34z"/>
     <path class="fil20" d="M820.22 1983.63c-0.22,-0.17 -0.41,-0.33 -0.63,-0.49 -4.91,-52.66 -12.85,-99.01 -20.68,-135.43 -19.81,-92.28 -90.96,-175.61 -179.7,-227.92 -0.03,-0.1 -0.08,-0.2 -0.12,-0.29 89.05,52.29 160.57,135.71 180.43,228.22 7.84,36.52 15.81,83.06 20.7,135.93z"/>
     <path class="fil18" d="M430.49 3272.61c-13.85,0 -25.49,-4.6 -34.33,-14.76 -93.51,-107.54 -240.56,-562.62 25.88,-716.9 236.87,-137.09 311.68,-623.08 197.17,-921.18 88.75,52.32 159.89,135.65 179.7,227.92 7.83,36.43 15.77,82.77 20.68,135.43 12.83,137.88 4.8,319.08 -80.76,479.14 -38.96,72.91 -94.05,141.44 -170.53,199.46 -17.93,13.59 -37.01,26.61 -57.37,38.97 -6.59,4.01 -12.89,8.08 -18.92,12.23 -226.61,155.94 -66.64,410.86 -66.64,410.86 62.12,0 112.4,34.56 141.37,76.94 -52.83,42.83 -101.47,71.87 -136.25,71.87z"/>
     <path class="fil11" d="M292.4 3354.46c-57.08,0 -82.95,-41.81 -57.51,-92.97 0,0 38.65,-143.9 205.93,-143.9 164.83,0 205.89,143.9 205.89,143.9 25.47,51.16 -0.4,92.97 -57.53,92.97l-296.78 0z"/>
     <path class="fil12" d="M498.24 3128.54c6.61,21.37 12.6,40.55 17.12,59.28 4.59,18.66 7.41,36.58 7.77,53.91 0.32,17.35 -1.83,34.35 -6.74,52.17 -4.76,17.97 -12.49,36.1 -20.64,56.9 18.26,-7.09 34.24,-21.21 46.04,-40.63 11.85,-19.31 18.62,-44.61 17.91,-69.51 -0.48,-24.95 -7.68,-48.57 -18.49,-67.83 -10.94,-19.19 -25.22,-35.2 -42.97,-44.29z"/>
     <path class="fil12" d="M377.82 3128.54c-6.6,21.37 -12.63,40.55 -17.19,59.28 -4.58,18.66 -7.4,36.58 -7.72,53.91 -0.32,17.35 1.83,34.35 6.74,52.17 4.8,17.97 12.47,36.1 20.65,56.9 -18.23,-7.09 -34.22,-21.21 -46.07,-40.63 -11.82,-19.31 -18.6,-44.61 -17.88,-69.51 0.46,-24.95 7.68,-48.57 18.45,-67.83 10.97,-19.19 25.23,-35.2 43.03,-44.29z"/>
     <path class="fil11" d="M581.07 1125.91c-2.03,0.84 -54.6,-37.43 -67.45,-61.95 -30.31,-57.88 -23.76,-90.9 -13.61,-97.01 137.5,-82.98 236.9,-350.67 236.9,-350.67 6.18,62.33 140.22,382.22 -155.84,509.62z"/>
    </g>
    <g>
     <path class="fil13" d="M3307.45 2603.48c29.42,-115.67 -62.09,-267.11 -62.09,-267.11 32.7,-173.52 -49.05,-265.63 -49.05,-265.63l-451.23 0c0,0 -93.75,92.11 -61,265.63 0,0 -91.62,151.44 -62.18,267.11 0,0 -252.78,168.64 -98.05,499.2 21.78,46.67 88.27,115.72 179.82,115.72 141.92,0 208.19,-19.06 261.05,-48.73 67.26,29.67 119.07,48.73 261,48.73 91.57,0 157.97,-69.05 179.84,-115.72 154.71,-330.56 -98.1,-499.2 -98.1,-499.2z"/>
     <path class="fil16" d="M3394.95 2164.23c-6.58,-62.89 -71.35,-361.4 -137.37,-414.92 -59.97,-48.67 -139.16,-71.69 -188.19,-86.5 29.22,18.2 54.79,43.57 63.15,77.85 22.85,94.29 14.71,95.84 65.39,165 7.14,9.8 11.48,34.63 9.79,64.24 8.09,19.33 46.1,90.91 74.4,243.81 11.8,63.79 127.55,99.01 127.55,99.01 0,0 -8.17,-85.66 -14.7,-148.49z"/>
     <path class="fil21" d="M3282.11 2213.71c11.8,63.79 127.55,99.01 127.55,99.01 -22.11,-42.42 -132.48,-372.48 -154.47,-447.9 -15.56,-53.07 -80.8,-88.6 -118.11,-105.03 17.48,75.69 13.87,81.78 60.85,145.87 7.14,9.8 11.48,34.63 9.79,64.24 8.09,19.33 46.1,90.91 74.4,243.81z"/>
     <path class="fil16" d="M2542.13 2164.23c6.6,-62.89 71.4,-361.4 137.34,-414.92 60.03,-48.67 139.24,-71.69 188.23,-86.5 -29.17,18.2 -54.81,43.57 -63.12,77.85 -22.89,94.29 -14.69,95.84 -65.4,165 -7.16,9.8 -11.44,34.63 -9.77,64.24 -8.11,19.33 -46.1,90.91 -74.38,243.81 -11.87,63.79 -127.55,99.01 -127.55,99.01 0,0 8.16,-85.66 14.66,-148.49z"/>
     <path class="fil21" d="M2655.02 2213.71c-11.87,63.79 -127.55,99.01 -127.55,99.01 22.07,-42.42 132.4,-372.48 154.51,-447.9 15.53,-53.07 80.75,-88.6 118.05,-105.03 -17.44,75.69 -13.83,81.78 -60.86,145.87 -7.16,9.8 -11.44,34.63 -9.77,64.24 -8.11,19.33 -46.1,90.91 -74.38,243.81z"/>
     <path class="fil16" d="M3212.44 1915.46c-50.64,-71.92 -42.49,-73.58 -65.4,-171.66 -21.55,-92.33 -158.61,-122.45 -174.95,-122.33 -53.73,0.39 -155.02,30.01 -176.59,122.33 -22.87,98.08 -14.66,107.92 -65.39,171.66 -27.27,34.32 -14.69,266.48 166.72,225.61 19.57,-4.4 54.77,-32.77 75.26,-32.77 34.41,0 54.05,28.37 73.63,32.77 181.45,40.88 191.99,-189.77 166.72,-225.61z"/>
     <path class="fil9" d="M3178.96 1820.28c6.43,25.91 -4.22,50.84 -8.51,51.91 -8.04,2.01 -38.86,0.34 -45.78,-38.6 -6.25,-35.06 17.01,-53.78 22.39,-55.09 7.86,-1.99 25.41,15.92 31.9,41.78z"/>
     <path class="fil9" d="M2756.21 1820.28c-6.47,25.91 4.14,50.84 8.47,51.91 8.07,2.01 38.84,0.34 45.75,-38.6 6.21,-35.06 -16.99,-53.78 -22.39,-55.09 -7.88,-1.99 -25.4,15.92 -31.83,41.78z"/>
     <path class="fil7" d="M3017.08 1944.72l-19.14 -319c-11.97,-2.92 -20.85,-4.29 -24.33,-4.25 -7.65,0.03 -16.3,0.72 -25.53,2.05l-20.41 322.26c-55.01,11.05 -104.69,41.49 -104.69,82.13 0,24.26 33.13,75.02 53.62,91.55 11.16,5.42 25.17,14 38.67,10.82 23.22,-5.45 41.08,-25.81 56.29,-25.81 25.07,0 41.78,25.28 59.41,28.86 12.38,2.51 22.51,-4.02 32.22,-10.21 22.16,-14.09 58.64,-80.92 58.64,-105.23 0,-40.52 -49.79,-64.72 -104.77,-73.18z"/>
     <path class="fil21" d="M2936.59 2114.2c1.73,17.78 16.75,31.7 34.98,31.7 18.27,0 33.29,-13.92 34.98,-31.7 0,0 -24.92,-12.05 -33.95,-12.18 -9.52,-0.07 -36.02,12.18 -36.02,12.18z"/>
     <path class="fil9" d="M3079.38 2098.19c-2.31,-1.21 -5.2,-0.38 -6.48,1.9 -7.98,14.48 -17.09,22.95 -26.89,25.13 -14.55,3.27 -29.32,-7.52 -39.09,-14.61 -3.25,-2.36 -6.07,-4.43 -8.53,-5.66 -8.68,-4.63 -16.29,-5.68 -21.22,-5.71l0 -94.79 -0.07 -0.36c15.88,-1.75 31.8,-14.41 39.12,-31.72 1.05,-2.43 -0.12,-5.29 -2.53,-6.3 -2.48,-1.07 -5.34,0.1 -6.35,2.54 -6.49,15.2 -21.36,26.46 -34.57,26.02 -11.61,-0.31 -31.02,-11.9 -38.63,-26.38 -1.2,-2.36 -4.14,-3.27 -6.51,-2.04 -2.36,1.28 -3.27,4.17 -2.02,6.49 7.8,14.87 26.53,28.33 42.17,31.08l-0.1 0.67 0 94.79c-4.94,0.03 -12.61,1.08 -21.29,5.71 -2.4,1.23 -5.22,3.3 -8.52,5.66 -9.72,7.09 -24.54,17.83 -38.97,14.61 -9.87,-2.18 -18.98,-10.65 -26.95,-25.13 -1.3,-2.28 -4.19,-3.12 -6.49,-1.9 -2.3,1.3 -3.12,4.2 -1.89,6.49 9.42,17.02 20.62,27.07 33.23,29.84 2.59,0.58 5.15,0.81 7.66,0.81 15.55,0 29.45,-10.03 39.04,-16.99 2.95,-2.18 5.55,-4.04 7.32,-4.99 11.64,-6.09 20.22,-4.4 20.55,-4.36l1.63 0 0.44 0.03c0.36,-0.07 8.98,-1.79 20.52,4.33 1.87,0.95 4.43,2.81 7.35,4.99 9.68,6.96 23.48,16.99 39.09,16.99 2.49,0 5.07,-0.23 7.6,-0.81 12.66,-2.77 23.82,-12.82 33.21,-29.84 1.28,-2.28 0.46,-5.19 -1.82,-6.49z"/>
     <path class="fil11" d="M2703.66 3218.4c141.92,0 208.19,-19.06 261.05,-48.73 67.26,29.67 119.07,48.73 261,48.73 28.23,0 54.06,-6.57 76.94,-17.03 -1.12,-12.26 -2.72,-25.11 -4.99,-38.54 -52.3,-313.89 -166.77,-797.81 -341.74,-797.81 -143.51,0 -295.87,500.28 -335.09,814.14 -0.81,6.31 -1.41,12.43 -2.02,18.46 24.76,12.59 53.29,20.78 84.84,20.78z"/>
     <path class="fil14" d="M3304.51 3255.65c32.09,0 46.66,-23.49 32.36,-52.2 0,0 -21.7,-80.87 -115.68,-80.87 -92.59,0 -115.65,80.87 -115.65,80.87 -14.31,28.71 0.25,52.2 32.3,52.2l166.68 0z"/>
     <path class="fil12" d="M3188.98 3128.77c-3.76,11.98 -7.13,22.76 -9.7,33.26 -2.55,10.54 -4.12,20.52 -4.34,30.29 -0.18,9.73 1.05,19.32 3.83,29.34 2.64,10.07 6.98,20.29 11.54,31.93 -10.23,-3.94 -19.19,-11.94 -25.85,-22.82 -6.62,-10.85 -10.44,-25 -10.07,-39 0.32,-14.05 4.3,-27.3 10.43,-38.15 6.12,-10.74 14.15,-19.78 24.17,-24.84z"/>
     <path class="fil12" d="M3256.53 3128.77c3.78,11.98 7.14,22.76 9.7,33.26 2.55,10.54 4.14,20.52 4.34,30.29 0.2,9.73 -1.05,19.32 -3.78,29.34 -2.69,10.07 -6.99,20.29 -11.61,31.93 10.29,-3.94 19.22,-11.94 25.91,-22.82 6.66,-10.85 10.41,-25 10,-39 -0.21,-14.05 -4.27,-27.3 -10.31,-38.15 -6.24,-10.74 -14.18,-19.78 -24.25,-24.84z"/>
     <path class="fil14" d="M2784.61 3255.65c32.15,0 46.62,-23.49 32.37,-52.2 0,0 -21.72,-80.87 -115.7,-80.87 -92.55,0 -115.65,80.87 -115.65,80.87 -14.3,28.71 0.27,52.2 32.36,52.2l166.62 0z"/>
     <path class="fil12" d="M2669.09 3128.77c-3.74,11.98 -7.14,22.76 -9.67,33.26 -2.54,10.54 -4.14,20.52 -4.33,30.29 -0.23,9.73 1.05,19.32 3.78,29.34 2.69,10.07 6.99,20.29 11.59,31.93 -10.26,-3.94 -19.24,-11.94 -25.82,-22.82 -6.7,-10.85 -10.47,-25 -10.07,-39 0.25,-14.05 4.27,-27.3 10.34,-38.15 6.17,-10.74 14.18,-19.78 24.18,-24.84z"/>
     <path class="fil12" d="M2736.71 3128.77c3.69,11.98 7.06,22.76 9.64,33.26 2.58,10.54 4.17,20.52 4.32,30.29 0.21,9.73 -0.97,19.32 -3.74,29.34 -2.68,10.07 -7.01,20.29 -11.61,31.93 10.29,-3.94 19.22,-11.94 25.89,-22.82 6.61,-10.85 10.42,-25 10.06,-39 -0.28,-14.05 -4.33,-27.3 -10.42,-38.15 -6.12,-10.74 -14.15,-19.78 -24.13,-24.84z"/>
     <path class="fil16" d="M3244.12 2182.34c0,0 -121.38,127.08 -163.93,218.68 -42.45,91.52 -107.87,287.71 -65.35,376 0,0 39.27,19.6 65.35,-49.07 26.22,-68.65 98.58,-223.82 134.47,-240.28 114.11,-52.35 130.36,-188.03 29.47,-305.32z"/>
     <path class="fil16" d="M2690.2 2182.34c0,0 121.4,127.08 163.9,218.68 42.5,91.52 107.86,287.71 65.37,376 0,0 -39.23,19.6 -65.37,-49.07 -26.15,-68.65 -98.49,-223.82 -134.47,-240.28 -114.03,-52.35 -130.37,-188.03 -29.43,-305.32z"/>
    </g>
    <path class="fil22" d="M3335.69 1548.69l-0.07 0 0.23 -4.04c0,1.38 -0.07,2.73 -0.16,4.04z"/>
    <path class="fil22" d="M3302.82 1754.13l-98.92 0 98.92 0c32,0 61.05,-5.96 86.87,-17.86 25.87,-11.88 48.02,-27.63 66.46,-47.26 1.03,-1.1 2.05,-2.2 3.05,-3.34 -1,1.14 -2.01,2.25 -3.05,3.34 -18.44,19.63 -40.58,35.38 -66.46,47.26 -25.82,11.9 -54.88,17.86 -86.87,17.86z"/>
    <path class="fil23" d="M3526.89 3341.64c40.04,0 100.1,0 100.1,0 116.29,-7.2 79.47,-98.91 107.53,-157.56 180.04,-376.66 19.4,-556.41 -100.55,-534.2 -69.77,12.92 -114.08,90.99 -101.1,167.05 18.4,107.32 48.58,368.63 48.58,368.63 -108.61,0 -163.59,156.09 -54.57,156.09z"/>
    <path class="fil24" d="M3472.65 3311.23c-1.44,-7.2 0.1,-14.35 2.82,-20.78 2.92,-6.45 7.38,-12.29 13.02,-16.84 11.23,-9.18 27.65,-12.69 40.63,-5.86 -6.16,4.02 -11.41,7.05 -16.12,10.21 -4.74,3.19 -9.01,6.34 -13.22,9.7 -4.22,3.32 -8.31,6.93 -12.67,10.85 -4.36,3.89 -8.9,8.11 -14.46,12.72z"/>
    <path class="fil24" d="M3511.74 3338.6c-2.81,-6.86 -2.55,-14.1 -0.82,-20.96 1.79,-6.85 5.47,-13.35 10.64,-18.59 10.31,-10.57 26.58,-15.14 39.8,-9.16 -5.78,4.45 -10.75,7.77 -15.2,11.27 -4.33,3.43 -8.12,6.85 -11.81,10.57 -3.61,3.61 -7.09,7.6 -10.7,12.05l-11.9 14.83z"/>
    <path class="fil23" d="M4243.67 3318.64c40.02,0 100.11,0 100.11,0 116.22,-7.22 79.49,-98.96 107.46,-157.6 35.28,-73.71 65.91,-104.74 75.53,-163.75 6.05,-36.82 -37.64,-58.67 -29.26,-79.56 146.6,-362.16 -86.73,-457.24 -174.32,-452.45 -82.56,4.53 -196.54,46.54 -221.08,160.58 -26.92,125.22 18.03,240.1 124.55,289.63 182.24,84.68 71.59,247.05 71.59,247.05 -108.61,0 -163.62,156.1 -54.58,156.1z"/>
    <path class="fil24" d="M4193.4 3286.49c-1.44,-7.28 0.1,-14.36 2.89,-20.82 2.9,-6.42 7.34,-12.28 13.02,-16.83 11.18,-9.16 27.56,-12.72 40.56,-5.86 -6.12,4.07 -11.4,7.03 -16.11,10.23 -4.76,3.14 -9.03,6.31 -13.22,9.62 -4.2,3.43 -8.31,7.01 -12.66,10.92 -4.43,3.97 -8.91,8.11 -14.5,12.75z"/>
    <path class="fil24" d="M4232.52 3313.84c-2.81,-6.86 -2.58,-14.13 -0.82,-20.96 1.77,-6.84 5.44,-13.35 10.61,-18.6 10.31,-10.59 26.61,-15.12 39.81,-9.2 -5.79,4.45 -10.77,7.79 -15.12,11.31 -4.45,3.41 -8.22,6.85 -11.87,10.52 -3.63,3.71 -7.12,7.63 -10.75,12.1l-11.85 14.82z"/>
    <path class="fil25" d="M4867.55 2585.45c0,-113.25 -121.12,-381.99 -374.36,-339.8 -115.72,19.26 -168.3,74.65 -311.12,126.41 -181.15,65.55 -266.03,-21.9 -266.03,-21.9l-428.68 107.64c-41.3,289.15 128.05,606.27 680.29,606.27 336.12,0 699.89,-123.96 699.89,-478.61z"/>
    <path class="fil25" d="M4777.53 2489.29c-22.42,0 -43.98,-12.66 -54.29,-34.23 -14.17,-29.91 -1.53,-65.63 28.22,-79.93 2.12,-1.03 117.74,-58.56 89.85,-132.91 -5.45,-14.69 -12.99,-32.62 -21.65,-53.38 -33,-79 -78.21,-187.24 -90.29,-295.74 -18.29,-164.5 450.12,16.98 261.91,74.89 -102.44,31.52 -175.08,-48.74 -169.42,-35.46 3.98,9.35 77.81,136.38 108.59,210.08 9.13,21.83 16.99,40.71 23.3,57.46 53.29,142.08 -75.14,247.49 -150.47,283.37 -8.31,3.94 -17.12,5.84 -25.74,5.84z"/>
    <path class="fil26" d="M4826.84 2771.78c-270.97,209.98 -612.11,143.33 -874.26,79.15 -282.18,-69.02 -263.01,-421.45 -274.48,-441.05l-190.73 47.92c-41.3,289.15 128.05,606.27 680.29,606.27 268.76,0 555.13,-79.27 659.18,-292.29z"/>
    <path class="fil25" d="M4558.79 3336.63c40.02,0 100.14,0 100.14,0 116.24,-7.18 79.45,-98.89 107.43,-157.55 35.31,-73.8 65.89,-104.77 75.56,-163.83 5.97,-36.74 -37.73,-58.64 -29.29,-79.51 146.58,-362.16 -86.71,-457.24 -174.31,-452.44 -82.52,4.5 -196.57,46.54 -221.06,160.57 -26.92,125.27 17.98,240.09 124.53,289.63 182.2,84.69 71.48,247.11 71.48,247.11 -108.51,0 -163.52,156.02 -54.49,156.02z"/>
    <path class="fil24" d="M4508.54 3304.48c-1.45,-7.22 0.1,-14.37 2.89,-20.78 2.86,-6.43 7.31,-12.29 12.98,-16.84 11.2,-9.16 27.59,-12.71 40.6,-5.86 -6.14,4.02 -11.36,7.02 -16.13,10.21 -4.76,3.16 -9.01,6.3 -13.2,9.67 -4.18,3.33 -8.32,6.96 -12.67,10.88 -4.4,3.96 -8.93,8.05 -14.46,12.72z"/>
    <g>
     <path class="fil27" d="M5171.21 1829.37l-0.36 -0.81 -27.56 -66.6c-1.21,-2.87 -3.02,-5.71 -5.37,-8.06 -9.73,-9.75 -25.53,-9.78 -35.28,-0.07 -9.75,9.73 -9.8,25.53 -0.08,35.28l38.54 38.68c-20.21,4.35 -39.99,10.06 -59.64,16.28 -22.02,7.08 -43.8,14.77 -65.16,23.94 -1.2,-0.82 -2.56,-1.41 -4.05,-1.64l-3.55 -0.54c-8.88,-1.36 -17.7,0.57 -26.58,1.29 -8.85,1.02 -17.7,2.2 -26.58,3.75l-2.5 0.39 -1.9 0.84 -45.78 33.47c-1.58,1.15 -2.15,3.32 -1.21,5.11 1.02,1.98 3.48,2.77 5.45,1.72l47.49 -24.59c8.34,1.41 16.7,2.53 25.04,3.48 3.27,0.27 6.53,0.66 9.85,1.04l-20.88 35.06c-1.82,3.04 -0.94,6.99 2.08,8.91 3.06,1.95 7.12,1.07 9.08,-1.98l24.5 -38.32 52.58 51.79c1.61,1.58 4.07,1.87 5.99,0.57 2.18,-1.44 2.75,-4.4 1.3,-6.58l-38.74 -57.87c20.65,-3.76 40.94,-8.68 61.15,-14.05 25.78,-7.03 51.33,-14.81 76.04,-25.48 5.77,-2.49 8.57,-9.18 6.14,-15.02z"/>
     <path class="fil27" d="M5009.4 1766.95l-0.34 -0.82 -27.57 -66.57c-1.18,-2.89 -2.99,-5.71 -5.35,-8.06 -9.72,-9.75 -25.52,-9.77 -35.28,-0.05 -9.77,9.68 -9.8,25.49 -0.08,35.24l38.54 38.69c-20.19,4.33 -39.99,10.05 -59.69,16.28 -21.96,7.09 -43.77,14.77 -65.12,23.92l-4.04 -1.61 -3.58 -0.56c-8.85,-1.35 -17.7,0.59 -26.56,1.29 -8.85,1.01 -17.73,2.17 -26.58,3.73l-2.46 0.43 -1.92 0.82 -45.77 33.47c-1.59,1.15 -2.15,3.34 -1.25,5.12 1.07,1.97 3.5,2.76 5.45,1.71l47.49 -24.59c8.38,1.4 16.68,2.53 25.04,3.48 3.32,0.25 6.58,0.69 9.85,1.05l-20.9 35.06c-1.81,3.02 -0.9,6.98 2.12,8.9 3.07,1.94 7.11,1.05 9.08,-2l24.51 -38.3 52.58 51.83c1.58,1.54 4.06,1.81 5.98,0.54 2.16,-1.44 2.75,-4.38 1.28,-6.58l-38.73 -57.88c20.63,-3.76 40.94,-8.67 61.15,-14.05 25.77,-7.03 51.33,-14.81 76.07,-25.48 5.78,-2.48 8.51,-9.18 6.08,-15.02z"/>
     <path class="fil22" d="M4798.7 880.72c84.61,0 234.9,40.96 278.73,257.19l71.82 209.75c0,0 491.34,778.7 499.97,1008.6 0,0 -119.15,-129.24 -197.54,-240.68 -219.81,-312.48 -518.46,-276.91 -610.14,-419.5 -116.36,-181.05 -90.27,-352.73 -90.27,-436.04 0,-83.35 -81.89,-159.49 -81.89,-237.07 0,-84.05 54.6,-142.25 129.31,-142.25z"/>
     <path class="fil28" d="M5458.76 1858.38c0,0 66.35,145.6 169.79,363.6 91.29,192.35 133.02,513.6 133.02,513.6 0,0 -47.18,-176.15 -251.23,-532.08 -101.96,-177.79 -277.14,-302.98 -338.78,-476.63l287.2 131.51z"/>
     <path class="fil29" d="M5102.68 1223.13c0,0 190.56,244.21 241.38,333.76 77.55,136.73 192.12,399.05 192.12,399.05 0,0 -195.82,-40.63 -363.95,-203.2 -98.78,-95.53 -437.85,-421.24 -69.55,-529.61z"/>
     <path class="fil27" d="M4703.6 1016.22c0,0 -20.93,59.72 -65.89,24.64 0,0 12.31,-41.89 65.89,-24.64z"/>
     <path class="fil30" d="M4739.93 987.87l-48.03 -47.1c0,0 -76.7,30.49 -60.97,120.1 0,0 7.65,-35.13 38.46,-37.91 30.85,-2.76 57.62,8.34 70.54,-35.1z"/>
     <path class="fil7" d="M4830.46 969.4c0,21.74 -17.6,39.33 -39.32,39.33 -21.72,0 -39.35,-17.59 -39.35,-39.33 0,-21.72 17.63,-39.34 39.35,-39.34 21.72,0 39.32,17.62 39.32,39.34z"/>
     <path class="fil30" d="M4806.64 969.4c0,11.87 -9.64,21.49 -21.5,21.49 -11.87,0 -21.52,-9.62 -21.52,-21.49 0,-11.87 9.65,-21.49 21.52,-21.49 11.87,0 21.5,9.62 21.5,21.49z"/>
    </g>
    <path class="fil24" d="M4547.6 3331.83c-2.75,-6.86 -2.49,-14.09 -0.77,-20.95 1.84,-6.85 5.42,-13.36 10.62,-18.61 10.33,-10.56 26.59,-15.11 39.79,-9.17 -5.74,4.49 -10.75,7.77 -15.13,11.31 -4.4,3.43 -8.18,6.83 -11.85,10.47 -3.64,3.69 -7.09,7.67 -10.75,12.12l-11.9 14.82z"/>
    <path class="fil25" d="M3776.51 3449.68c40.01,0 100.08,0 100.08,0 116.29,-7.2 79.47,-98.94 107.48,-157.56 180.07,-376.63 19.47,-556.44 -100.52,-534.21 -69.74,12.92 -114.07,91.05 -101.09,167.07 18.37,107.28 48.58,368.68 48.58,368.68 -108.58,0 -163.55,156.03 -54.52,156.03z"/>
    <path class="fil24" d="M3722.22 3419.28c-1.43,-7.24 0.15,-14.31 2.86,-20.8 2.89,-6.44 7.35,-12.28 13,-16.83 11.24,-9.18 27.59,-12.69 40.58,-5.86 -6.16,4 -11.34,7.05 -16.12,10.26 -4.71,3.12 -8.98,6.25 -13.18,9.62 -4.17,3.35 -8.34,6.96 -12.66,10.85 -4.4,3.96 -8.98,8.12 -14.48,12.76z"/>
    <path class="fil24" d="M3761.31 3446.63c-2.81,-6.84 -2.54,-14.08 -0.82,-20.93 1.84,-6.86 5.47,-13.37 10.64,-18.61 10.31,-10.57 26.61,-15.13 39.81,-9.19 -5.81,4.44 -10.77,7.81 -15.18,11.29 -4.38,3.43 -8.16,6.86 -11.85,10.5 -3.6,3.68 -7.03,7.72 -10.69,12.12l-11.9 14.82z"/>
    <path class="fil31" d="M3922.09 2355.46c-0.02,-0.02 -0.02,-0.02 -0.02,-0.02l0 -0.01c0,0.01 0,0.01 0.02,0.03z"/>
    <path class="fil32" d="M3695.02 2536.86c-1.74,-9.2 -3.23,-18.13 -4.53,-26.69 105.14,-31.22 196.63,-83.5 231.58,-154.73 0,0 0,0 0.02,0.02 5.14,7.94 -41.26,117.65 -227.07,181.4z"/>
    <path class="fil33" d="M3579.73 2554.03c-54.83,0 -98.51,-9.23 -98.2,-11.81 0,-0.08 0.01,-0.18 0.01,-0.26 0.54,0 1.05,0 1.58,0 48.26,0 99.53,-6.18 149.44,-16.99l0 0c19.59,-4.25 38.97,-9.2 57.94,-14.81 1.29,8.57 2.79,17.5 4.53,26.69 -1.13,0.39 -2.28,0.77 -3.41,1.16 -36.02,12.12 -76.29,16.01 -111.88,16.01z"/>
    <path class="fil25" d="M3850.14 2115.26c0,0 44.57,-197.44 -46.19,-259.16 0,0 -144.02,26.52 -183.8,136.95 0,0 83.54,109.87 229.99,122.22z"/>
    <path class="fil26" d="M3797.9 2093.66c0,0 28.38,-125.39 -29.27,-164.62 0,0 -91.47,16.86 -116.74,86.96 0,0 53.09,69.83 146.01,77.67z"/>
    <path class="fil25" d="M3264.28 2242.27c0,0 -122.32,-161.19 -65.29,-254.96 0,0 142.06,-35.52 223.96,48.44 0,0 -30.48,134.67 -158.68,206.52z"/>
    <path class="fil26" d="M3302.82 2201.02c0,0 -77.7,-102.37 -41.5,-161.98 0,0 90.27,-22.56 142.28,30.76 0,0 -19.35,85.56 -100.78,131.21z"/>
    <path class="fil25" d="M3922.11 2222.95c67.4,157.16 -102.27,261.42 -289.55,302.03 -187.24,40.63 -393.71,15.72 -388.63,-154.97 5.74,-194.5 129.75,-345.59 273.36,-376.75 143.54,-31.14 325.48,44.44 404.82,229.7z"/>
    <path class="fil26" d="M3571.37 2247.03c-158.38,34.34 -269.41,142.18 -248.03,240.86 1.99,9.08 5.09,17.73 8.98,25.97 76.53,36.17 191.61,34.69 300.23,11.12 109.77,-23.81 213.41,-69.49 266.86,-134.88 0.18,-8.86 -0.67,-17.73 -2.58,-26.54 -21.34,-98.68 -167.1,-150.86 -325.47,-116.52z"/>
    <path class="fil24" d="M3772.39 2163.62c4.89,22.52 -2.77,43.36 -17.06,46.41 -14.31,3.1 -29.86,-12.61 -34.72,-35.15 -4.89,-22.5 2.71,-43.3 17.04,-46.42 14.28,-3.09 29.86,12.64 34.74,35.16z"/>
    <path class="fil24" d="M3396.07 2245.24c4.86,22.54 -2.77,43.32 -17.05,46.43 -14.35,3.12 -29.88,-12.64 -34.76,-35.17 -4.89,-22.56 2.74,-43.32 17.07,-46.41 14.27,-3.12 29.86,12.66 34.74,35.15z"/>
    <path class="fil34" d="M3584.29 2470.61l3.32 14.25c3.68,15.99 19.68,25.94 35.64,22.24 16.04,-3.71 25.94,-19.65 22.26,-35.64l-3.17 -13.46c0,0 -13.99,-3.15 -23.84,-13.85 -10.41,-11.2 -17.12,-31.55 -17.12,-31.55 0,0 2.56,19.24 -1.41,34.8 -4.55,17.59 -15.68,23.22 -15.68,23.22z"/>
    <path class="fil35" d="M3622.2 2503.6c-2.25,-4.31 -3.89,-8.85 -5.38,-13.26 -1.44,-4.55 -2.69,-9.11 -3.79,-13.71 -1.05,-4.59 -1.94,-9.26 -2.61,-13.95 -0.66,-4.7 -1.16,-9.42 -1.05,-14.28 2.22,4.31 3.86,8.78 5.35,13.26 1.45,4.55 2.75,9.09 3.79,13.72 1.07,4.58 1.94,9.23 2.61,13.92 0.61,4.7 1.14,9.42 1.08,14.3z"/>
    <path class="fil24" d="M3638.01 2457.77c-10.49,0 -19.91,-4.35 -27.67,-12.92 -9.73,-10.79 -13.49,-24.59 -14.43,-28.63l-20.48 -88.14 11.74 -2.71 20.44 88.17c0.77,3.23 3.86,14.63 11.64,23.23 7.12,7.86 15.4,10.54 25.46,8.19 21.6,-5.01 26.33,-19.68 23.61,-31.75l-5.24 -22.41c-0.74,-3.2 1.25,-6.44 4.47,-7.18 3.35,-0.72 6.47,1.28 7.24,4.49l5.2 22.36c4.2,18.29 -4.2,39.6 -32.59,46.2 -3.18,0.75 -6.35,1.1 -9.39,1.1z"/>
    <path class="fil24" d="M3566.53 2473.99c-10.18,0 -17.33,-3.23 -21.96,-6.42 -9.93,-6.9 -13.49,-16.88 -14.74,-22.26l-5.15 -22.34c-0.81,-3.23 1.21,-6.45 4.45,-7.21 3.23,-0.72 6.45,1.27 7.22,4.5l5.19 22.34c1.44,6.24 5.04,11.75 9.87,15.1 6.35,4.42 14.89,5.43 25.28,3.07 10.03,-2.35 16.35,-8.42 19.22,-18.55 3.25,-11.18 1,-22.78 0.23,-26.05l-20.46 -88.17 11.71 -2.71 20.45 88.17c0.92,3.97 3.63,18.14 -0.38,32.05 -4.1,14.33 -13.82,23.64 -28.02,26.92 -4.81,1.1 -9.08,1.56 -12.9,1.56z"/>
    <path class="fil24" d="M3665.39 2310.12c6.86,29.52 -24.89,62.07 -70.92,72.72 -46,10.69 -88.86,-4.58 -95.71,-34.01 -6.83,-29.48 24.93,-62.05 70.95,-72.73 46.05,-10.67 88.93,4.6 95.67,34.02z"/>
    <path class="fil24" d="M3680.43 2278.43c-1.81,0 -3.56,-0.77 -4.74,-2.28 -2.02,-2.61 -1.64,-6.37 0.98,-8.4 1.64,-1.33 165.26,-129.11 328.61,-127.22 3.36,0.03 6.01,2.74 5.97,6.09 -0.05,3.29 -2.74,5.91 -5.97,5.91l-0.12 0 -3.77 -0.01c-157.65,0 -315.67,123.39 -317.25,124.63l-3.71 1.29z"/>
    <path class="fil24" d="M3693.79 2294.11c-2.05,0 -4.07,-1.07 -5.16,-2.99 -1.71,-2.85 -0.67,-6.53 2.22,-8.16 1.92,-1.15 194.48,-110.33 361.5,-101.86 3.37,0.17 5.86,2.99 5.71,6.29 -0.2,3.34 -3.12,5.88 -6.32,5.7 -163.49,-8.32 -353.05,99.15 -354.93,100.3l-3.02 0.72z"/>
    <path class="fil24" d="M3699.44 2314.44c-2.18,0 -4.3,-1.18 -5.38,-3.27 -1.48,-2.95 -0.29,-6.57 2.69,-8.06 1.53,-0.77 156.99,-78.47 338.73,-67.59 3.28,0.21 5.81,3.05 5.66,6.34 -0.23,3.31 -3.1,5.86 -6.38,5.64 -178.33,-10.62 -331.07,65.53 -332.63,66.32l-2.69 0.61z"/>
    <path class="fil24" d="M3702.53 2334.53c-2.55,0 -4.96,-1.66 -5.71,-4.23 -1,-3.17 0.75,-6.52 3.9,-7.51 1.51,-0.46 150.31,-46.03 279.49,-32.86 3.31,0.33 5.73,3.27 5.44,6.58 -0.38,3.3 -3.22,5.77 -6.62,5.38 -126.81,-12.96 -273.27,31.88 -274.66,32.36l-1.84 0.28z"/>
    <path class="fil24" d="M3136.03 2415.59c-1.87,0 -3.73,-0.88 -4.92,-2.61 -1.88,-2.69 -1.17,-6.47 1.56,-8.32 134.47,-92.49 341.78,-77.26 343.87,-77.07 3.23,0.23 5.75,3.12 5.45,6.45 -0.26,3.27 -3,5.75 -6.45,5.48 -2,-0.14 -205.17,-15 -336.09,75.01l-3.42 1.07z"/>
    <path class="fil24" d="M3121.13 2475.13c-1.86,0 -3.69,-0.87 -4.84,-2.43 -1.99,-2.68 -1.48,-6.44 1.25,-8.4 134.09,-99.99 354.84,-116.33 357.02,-116.48 3.3,-0.21 6.24,2.27 6.44,5.58 0.27,3.28 -2.27,6.17 -5.57,6.38 -2.12,0.16 -219.52,16.24 -350.71,114.14l-3.58 1.2z"/>
    <path class="fil24" d="M3164.99 2511.84c-1.81,0 -3.61,-0.8 -4.79,-2.38 -2.02,-2.64 -1.49,-6.38 1.15,-8.42 144.94,-109.97 317.41,-132.07 319.1,-132.22 3.3,-0.39 6.29,1.92 6.66,5.22 0.4,3.29 -1.92,6.24 -5.19,6.66 -1.68,0.23 -171.06,21.94 -313.32,129.92l-3.61 1.21z"/>
    <path class="fil24" d="M3243.38 2525.34c-1.77,0 -3.46,-0.72 -4.64,-2.15 -2.1,-2.59 -1.76,-6.35 0.81,-8.47 100.04,-82.82 249.05,-127.7 250.49,-128.13 3.23,-0.98 6.51,0.86 7.47,4.01 1,3.22 -0.87,6.53 -4.01,7.49 -1.51,0.44 -148.19,44.67 -246.31,125.89l-3.81 1.36z"/>
   </g>
  </g>
 </g>
</svg>
