<?xml version="1.0" encoding="UTF-8"?>
<!DOCTYPE svg PUBLIC "-//W3C//DTD SVG 1.1//EN" "http://www.w3.org/Graphics/SVG/1.1/DTD/svg11.dtd">
<!-- Creator: CorelDRAW 2019 (64 Bit) -->
<svg xmlns="http://www.w3.org/2000/svg" xml:space="preserve" width="322.012mm" height="322.012mm" version="1.1" style="shape-rendering:geometricPrecision; text-rendering:geometricPrecision; image-rendering:optimizeQuality; fill-rule:evenodd; clip-rule:evenodd"
viewBox="0 0 32198.8 32198.8"
 xmlns:xlink="http://www.w3.org/1999/xlink">
 <defs>
  <style type="text/css">
   <![CDATA[
    .fil1 {fill:#593202}
    .fil0 {fill:#D9A404}
   ]]>
  </style>
 </defs>
 <g id="Camada_x0020_1">
  <metadata id="CorelCorpID_0Corel-Layer"/>
  <rect class="fil0" x="0" y="0" width="32198.8" height="32198.8"/>
  <g id="_2452878479520">
   <path class="fil1" d="M12425.76 15149.5c-5.25,-62.23 144.74,-361.47 185.66,-424.46 115.73,-178.11 275.59,-454.77 426.06,-616.86 113.54,-122.32 81.03,-148.43 172.98,-207.97 88.44,-57.29 129.48,-152.96 209.04,-165.32l-7.64 4.47c15.55,-38.77 69.5,-83.33 102.43,-111.55l173.64 -134.83c36.43,-31.12 136.3,-111.4 176.72,-109.58 13.28,-31.91 26.35,-33.12 63.32,-55.97l205.42 -124.27c83.71,-54.28 -22.77,-6.05 102.8,-65.13l142.56 -70.5c111.89,-67.1 42.95,-15.7 116.35,-53.94 35.31,-18.4 43.99,-15.84 75.9,-30.56l116.47 -53.95c54.03,-32.81 51.41,-2.86 130.84,-39.25 33.59,-15.39 49.5,-10.53 86.27,-21.7 36.4,-11.04 39.28,-22.45 73.47,-30.25 668.1,-152.28 932.95,-183.25 1584.04,-119.53 93,9.09 76.02,9.48 94.33,34.08l10.75 -6.3c199.85,-13.12 541.6,120.26 694.1,156.09 101.68,23.89 266.37,86.64 359.2,134.05l318.62 159.41c152.78,76.31 449.38,295.18 578.5,399.15l428.09 402.29c59.21,75.28 42.75,43.45 67.9,70.77 16.68,18.14 32.29,51 58.79,79.55 105.79,113.93 61.2,69.33 119.12,158.4l53.96 86.51c27.44,46.53 65.55,32.91 45.09,89.28 19.81,8.82 4.2,-2.77 20.82,11.67l10 11.4c34.47,42.9 115.47,192.55 126.17,236.29 60.33,70.99 20.15,47.14 76.23,135.89l166.78 365.5c23.36,81.24 111.78,281.11 108.06,337.48 33.41,38.35 16.95,49.56 44,118.68l53.11 212.24c47.09,216.49 88.17,720.17 74.89,954.94 -3.28,57.92 -21.58,109.31 -25.99,180.29 -17.95,287.95 -23.83,184.4 -45.86,372.27 -6.6,56.39 -30.82,101.91 -38.69,161.1 -14.51,109.11 -183.37,643.83 -251.67,740.32 -2.03,2.85 -8.72,10.94 -11.18,13.51 -64.7,67.56 57.7,-41.25 -23.02,18.83 -1.74,50.06 -59.42,109.06 -64.32,136.71 1.45,60.84 -52.98,134.37 -82.38,193.16l-86.39 138.59c-24.81,19.32 1.49,7.9 -32.03,11.03 -0.03,48.19 -29.36,61.97 -45.25,111.76 -11.93,40.36 -11.83,32.76 -34.21,63.03l-149.3 190.98c-38.95,44.79 -84.27,113.08 -132.78,135.68l-0.9 -3.15c-15.53,42.03 -31.53,49.62 -58.94,79.8 -23.97,26.41 -39.12,42.65 -62.12,65.27 -7.47,7.34 -11.46,10.45 -16.34,15.02 -1.6,1.5 -4.01,3.51 -5.62,5.03l-235.7 213.3c-1.64,1.31 -3.99,3.44 -5.67,4.72 -1.71,1.3 -4.43,3.11 -6.18,4.39l-79.96 67.7c-32.61,26.51 -47.49,47.79 -91.22,55.8 -24.69,5.61 -162.76,119.72 -206.84,146.29 -103.46,62.36 -328.88,205.93 -423.14,238.81 -104.18,36.33 -22.71,18.13 -100.03,47.97l-308.04 127.14c-188.74,59.23 -389.46,123.74 -586.89,152.44 -57.43,8.35 -39.05,22.56 -107.49,28.43 -65.01,5.59 -70.61,10.73 -126.53,19.62 -89.13,14.18 -176.6,16.06 -272.76,26.25 -187.74,19.89 -386.64,-0.08 -569.03,-3.89 -220.5,-4.63 -405.18,-64.97 -511.1,-74.86 -19.37,-1.81 -43.02,-1.72 -61.42,-5.64l-170.92 -51.1c-50.66,-25.08 -179.42,-37.41 -212.94,-85.93 -49.62,9.28 -105.22,-24.46 -147.37,-41.24l-142.4 -50.66c-39.4,-16.35 -238.11,-111.89 -259.85,-109.34 -89.09,-18.48 -264.2,-146.57 -351.3,-195.17 -41.48,-23.15 -36.7,-3.69 -44.58,-48.81l-181.18 -129.55c-30.27,-29.94 -12.35,-3.54 -18.93,-32.72 -45.81,8.7 -32.17,-15.43 -64.65,-23.59 -48.26,-3.33 -36.88,-10.47 -93.02,-54.42l-117.62 -104.38c-44.97,-45.36 -25.9,-14.05 -77.42,-72.9 -27.26,-31.14 -22.75,12.45 -28.23,-46.26l-38.44 -9.09c-13.63,-23.21 -24.31,-34.66 -40.2,-50.74 -37.67,-38.09 -36.78,-20.35 -45.68,-70.88 -6.52,-11.28 -22.28,-24.3 -26.28,-27.65 -56.58,-4.37 -151.46,-151.4 -193.81,-199.6 -36.47,-41.49 -50.4,-40.95 -53.83,-93.12 -2.6,-9.21 -106.16,-163.71 -115.94,-170.33 -53.81,-6.7 -146.96,-196.2 -175.62,-242.61l-186.26 -377.27c-24.11,-56.82 -16.54,-7.51 -42.59,-103.42 -18.49,-68.05 -126.77,-259.75 -119.14,-413.2l-42.48 -228.38c-12.59,-39 -20.21,-28.27 -26.57,-62.77 -14.32,-77.6 11.77,-12.69 -26.65,-167.49 -12.68,-51.13 -11.22,-120.31 -14.7,-181.98 -5.43,-96.21 -29.01,-214.13 -30.18,-350.48 -2.9,-336.51 36.62,-801.65 139.08,-1095.74 11.15,-31.99 7.63,-48.08 14.48,-83.47 8.91,-46.07 16.23,-32.42 27.99,-63.39 9.75,-25.72 8.49,-52.15 18.31,-80.11l77.36 -211.37c19.48,-35.78 24.73,-6.29 25.65,-64.79zm9252.06 -2586.25c0.87,-110.48 66.15,-171.33 126.85,-241.97 85.95,-100.05 241.19,-157.3 383.73,-158.07 58.26,-0.32 121.2,-3.06 164.95,16.29 58.93,26.06 191.14,79.57 214.5,132.69 29.4,-0.41 24.69,-25.39 24.81,2.84 28.11,21.84 36.2,44.11 85.71,49.75 1.84,57.48 51.6,153.51 76.19,199.7 18.78,35.25 13,190.32 11.53,248.79 -1.67,66.55 -103.52,240.96 -153.67,283.78 -8,6.81 -10.37,8.46 -17.63,15.26 -11.69,10.94 -7.7,7.32 -16.35,16.51 -39.95,42.44 -155.34,107.14 -190.85,118.69 -28.91,9.39 -87.6,23.92 -106.72,29.24 -90.98,25.27 -255.97,-13.69 -330.78,-56.35 -48.78,-27.82 -49.77,-20.03 -92.13,-55.63 -71.88,-60.43 -61.5,-28.19 -63.14,-79.99 -3.15,-24.61 -44.04,-68.98 -64.84,-101.11 -120.2,-185.69 -59.05,-327.86 -52.19,-420.41zm-8079.22 -2199.1c-1.78,36.86 7.2,25.61 -31.12,72.89l-9.62 11.94c-13.64,16.93 -10.7,13.17 -23.13,27.49 -16.38,18.85 -2.97,-1.99 -24,31.71 -59.09,94.73 -71.59,77.86 -77.22,155.07 -31.47,4.15 -39.27,-11.7 -67.41,65.72 -27.36,75.32 4.99,24.69 -54.65,77.62 -1.57,1.39 -24.35,19.54 -24.48,19.6l-36.53 7.27c-9.86,44.94 -50.9,77.73 -99.73,165.1 -10.7,19.13 -20.83,26.25 -37.62,46.39l-270.76 388.39c-1.47,1.59 -18.4,22.46 -19.66,24.1 -55.94,73.19 -76.45,132.82 -139.44,183.04l-15.25 12.1c-5.74,9.06 -9.96,16.01 -17.72,24.86 -15.15,17.3 2.08,-0.96 -13.6,13.12 -1.3,1.17 -6.31,5 -9.49,6.55l-17.65 25.08c-32.98,25.53 -620.91,10.36 -647.96,7.4 -29.26,-41.48 -39.11,-33.73 -39.42,-108.19l-5.18 -992.39 -0.88 -33.41c-52.22,-17.16 -11.91,2.05 -70.96,-67.88 -66.78,-79.04 -149.15,-99.95 -263.06,-100.15l-957.51 0.1c-164.38,-0.01 -204.71,-21.85 -312.04,51.56 -8.81,6.02 -30.53,23.82 -35.2,28.7 -76.37,79.79 -73.22,86 -101.44,196.63 -25.71,100.75 6.33,827.53 -8.96,958.78 -9.78,83.8 -71.86,72.73 -159.34,72.35 -164.72,-0.71 -319.31,9.77 -480.84,12.64 -25.3,-5.48 -79.81,18.06 -119.81,27.58 -64.21,15.31 -46.04,29.32 -112.21,36.9 -12.08,27.76 -12.28,29.56 -42.31,42l-83.33 42.7c-77.25,34.76 -143.6,113.56 -202.92,127.43 -36.11,23.4 -43.01,49.6 -80.34,70.42 -12.3,34.84 -34.92,55.78 -65.11,94.29l-123.31 173.33c-56.17,111.47 -28.57,72.32 -67.52,83.08 -8.09,11.92 -24.22,31.83 -21.16,62.42 2.57,67.5 -56.74,224.84 -66.89,336.84 -12.95,142.85 -2.91,1005.24 -2.93,1190.31 -0.1,2372.34 -6.89,4756.6 1.98,7127.67 0.36,96.05 15.75,263.08 45.87,347.49 41.18,115.39 34.26,153.33 118.94,284.49 53.56,82.96 106.07,158.73 165.79,228.74 104.81,122.89 249.4,217.24 392.79,286.93l156.6 50.72c54.23,8.73 36.08,17.12 70.09,29.8 201.26,74.96 1422.75,44.07 1750.63,44.07l11106.39 0.01c166.12,-0.12 362.17,-29.39 508.41,-85.76 172.9,-66.65 341.75,-189.72 468.41,-326.67 56.66,-61.27 64.72,-88.12 108.24,-103.44 29.04,-44.74 109.04,-120.67 112.15,-186.15 3.19,-110.04 108.97,-187.21 111.62,-538.31 11.34,-1496.16 0.33,-3033.77 0.33,-4531.92l0 -3223.42c0,-168.15 18.14,-496.6 -6.52,-646.8l-83.62 -309.71c-12.59,-25.45 -16.87,-30.28 -30.45,-50.2 -122.01,-179.02 -74.33,-170.83 -280.48,-369.96 -36.92,-35.67 -69.8,-49.29 -83.01,-98.88 -23.4,-15.33 -28.67,-36.17 -75.52,-39.93 -36.82,-7.74 -14.33,-0.94 -46.23,-16.01 -107.22,-50.69 -44.29,-31.85 -237.14,-113.06 -35.03,-14.74 -52.3,-12.21 -84.99,-21.75 -18.81,-5.49 -50.11,-19.05 -68.44,-23.04 -245.41,-53.44 -2833.95,2.37 -2987.12,-28.71 -84.85,-17.21 -74.86,-36.58 -116.22,-87.78l-85.73 -116.51c-61.67,-85.27 -386.96,-552.31 -451.9,-603.05 -54.59,-42.66 7.84,-25.54 -104.39,-148.61l-46.67 -50.1c-24.15,-21.79 -8.03,-1.82 -24.75,-25.56 -1.21,-1.7 -2.64,-4.55 -3.81,-6.33l-12.11 -19.88c-18.36,-29.65 -17.46,-36.56 -33.53,-62.78 -43.99,-71.78 -32.12,-11.16 -86.59,-114.63 -33.23,-63.15 -146.12,-212.25 -211.24,-251.27 -76.01,-45.54 -40.97,-55.29 -63.58,-70.56 -24.94,-16.86 -27.34,20.26 -106.88,-45l-51.2 -35.11c-1.96,-1.16 -4.86,-2.48 -6.77,-3.64l-34.12 -27.23c-1.96,-1.58 -4.29,-3.73 -6.35,-5.26 -2.1,-1.57 -4.65,-3.42 -6.85,-4.89 -98.38,-65.9 -108.84,-99.69 -197.94,-123.82 -53.21,-14.4 -21.73,-4.36 -52.86,-26.11 -109.04,-76.19 -478.62,-131.78 -600.85,-133.18 -484.58,-5.56 -972.52,-0.22 -1457.49,-0.22 -339.84,0 -773.86,-8.17 -1106.56,1.14 -50.42,1.41 -117.48,4.27 -162.59,17.83 -63,18.93 -87.14,12.56 -154.15,27.45l-212.13 71.91c-41,11.13 -30.18,11.83 -58.01,26.75 -25.56,13.72 -41.19,13.4 -68.86,27.46l-171.2 95.73c-124.02,66.7 -197.45,149.56 -298.77,242.67 -28.33,26.03 -74.38,57.44 -80.93,92.91z"/>
   <path class="fil1" d="M15199.65 13994.21c-44.13,-3.92 -238.2,78.3 -284.01,100.45l-262.21 129.68c-5.88,3.63 -23.01,16.42 -30.05,29.57 -33.07,42.18 -45.78,42.41 -83.58,69.26 -11.7,8.32 -30.03,22.94 -42.05,33.37l-118.16 82.8c-101.9,77.23 -331.79,306.89 -361.09,319.62l-32.28 33.85c-13.81,36.99 -44.48,70.61 -64.8,93.06 -32.81,36.25 -31.19,37.89 -60.3,78.4 -83.52,116.21 -292.48,405.15 -313.1,528.01l-30.41 9.87 -59.27 188.12c-14,32.37 -15.41,12.67 -29.83,52.81 -82,228.46 -153.71,652.2 -154.95,877.62 -1.27,228.39 26.59,424.96 56.98,637.09 13.15,91.79 132.1,470.46 168.01,509.88 34.84,21.83 -0.18,-16.32 34.43,33.02 4.93,7.04 12.98,25.99 20.09,41.57 17.69,38.75 25.7,44.86 39.53,78.63 37.42,91.4 120.56,220.47 179.71,308.18 60.34,89.44 47.08,69.38 109.88,134.59 30.4,31.54 19.67,55.19 100.65,143.48 31.01,33.81 54.26,68.47 91.8,91.53 51.3,31.53 21.49,44.09 150.26,156.02l93.94 74.97c1.62,1.5 4.09,3.33 5.65,4.98 24.16,25.57 19.37,3.31 25.52,49.28 19.62,23.63 59.01,49.49 95.8,75.64 26.26,18.67 81.79,52.76 98.77,71.94 71.87,10.26 42.03,18.85 86.58,40 82.04,38.96 9.4,-19.35 70.1,34.54 43.14,38.29 -15.33,-11.01 11.58,10.32l528.69 248.16c0.77,0.04 353.89,98.68 450.84,108.84l357.37 26.81c55.64,0.37 134.75,3.54 187.96,-4.18 126.15,-18.29 377.42,-30.88 505.83,-67.76 37.55,-10.77 26.65,-13.45 70.51,-24.25l360.26 -118.83c82.34,-29.14 460.42,-228.95 494.97,-278.24l40.33 -3.63 1.31 3.19c25.34,-60.65 131.58,-113.15 181.82,-159.06 51.43,-47 131.45,-103.6 168.8,-161.27l31.27 -1.89c-0.2,-57.44 0.09,-9.8 79.41,-110.39 32.62,-41.37 66.63,-73.3 93.46,-110.45 163.73,-226.58 129.39,-121.53 317.41,-468.34 17.97,-33.15 121.3,-217.74 129.69,-258.01 11.72,-56.33 116.6,-347.64 129.48,-466.08 7.39,-68 25.51,-96.48 34.71,-165.64 8.9,-66.92 3.32,-111.74 18.94,-169.93 15.13,-56.44 14.16,-121.86 15.37,-187.06 5.01,-271.29 -22.05,-544.29 -97.61,-793.83 -7.98,-26.36 -10.63,-54.67 -16.97,-79.59 -12.05,-47.32 -30.86,-101.34 -49.29,-153.72 -48.2,-136.92 -64.51,-153.83 -118.73,-273.28l-103.52 -194.82c-19.38,-36.65 -14.49,-37.11 -38.19,-69.39l-190.24 -256.8c-1.47,-1.52 -3.72,-3.72 -5.14,-5.27 -147.96,-160.83 -91.55,-153.05 -344.8,-378.6 -37.29,-33.21 -67.28,-58.95 -108.65,-93.71 -67.58,-56.81 -91.6,-42.59 -112.58,-99.19 -15.91,-6.86 -73.57,-46.77 -96.76,-63.16 -42.71,-30.22 -56.6,-36.14 -108.89,-61.72 -44.17,-21.61 -173.87,-114.11 -218.38,-111.77l-591.29 -190.63c-41.66,-4.71 -90.84,-12.32 -130,-23.07 -178.4,-48.98 -688.37,-31.34 -865.63,-10.11l-134.16 23.83c-45.67,8 -89.26,7.68 -131.86,19l-248.95 61.67z"/>
  </g>
 </g>
</svg>
