<?xml version="1.0" encoding="UTF-8"?>
<!DOCTYPE svg PUBLIC "-//W3C//DTD SVG 1.1//EN" "http://www.w3.org/Graphics/SVG/1.1/DTD/svg11.dtd">
<!-- Creator: CorelDRAW 2019 (64 Bit) -->
<svg xmlns="http://www.w3.org/2000/svg" xml:space="preserve" width="322.012mm" height="322.012mm" version="1.1" style="shape-rendering:geometricPrecision; text-rendering:geometricPrecision; image-rendering:optimizeQuality; fill-rule:evenodd; clip-rule:evenodd"
viewBox="0 0 32198.8 32198.8"
 xmlns:xlink="http://www.w3.org/1999/xlink">
 <defs>
  <style type="text/css">
   <![CDATA[
    .fil1 {fill:#593202}
    .fil0 {fill:#D9A404}
   ]]>
  </style>
 </defs>
 <g id="Camada_x0020_1">
  <metadata id="CorelCorpID_0Corel-Layer"/>
  <rect class="fil0" x="0" y="0" width="32198.8" height="32198.8"/>
  <g id="_1857636673584">
   <path class="fil1" d="M8199.11 20335.91c0,1241.36 631.81,2728.88 1184.92,3463.72 657.88,874 1750.31,1489.76 3235.08,1489.76l7315.87 0c1095.36,0 2444.74,-636.09 2950.58,-1240.78 333.43,-398.59 564.32,-752.8 748.35,-1309.28 412,-1245.87 524.2,-2136.21 84.11,-3443.01 -272.88,-810.42 -1140.63,-1881.07 -1790.33,-2401.09 -410.29,-328.38 -757.61,-652.79 -1230.65,-903.08 -187.42,125.43 -231.79,204.82 -399.4,362.62 -1834.12,1726.6 -4434.1,2097.96 -6815.15,907.77 -521.47,-260.69 -1736.05,-1018.93 -2006.5,-1422.84 -1562.81,826.94 -3276.9,2598.68 -3276.9,4496.21z"/>
   <path class="fil1" d="M15972.21 17135.21c2087.01,0 3930.46,-944.72 4828.63,-2792.02 2038.87,-4193.17 -2158.31,-8965.28 -6657.66,-6962.51 -1894.03,843.09 -2821.64,2493.35 -3030.12,4519.34 -117.2,1138.97 574.71,2752.86 1371.49,3616.97 683.72,741.51 2097.73,1618.22 3487.67,1618.22z"/>
  </g>
 </g>
</svg>
